{
  "source": "C:\\Users\\Peter\\Desktop\\stuff\\MIUN\\quantitative_research\\video_compression\\videos\\BVI-HD\\BVI-HD_CDVL_videos\\ORIG\\CarpetCircleFast_1920x1080_60fps.mp4",
  "output": "C:\\Users\\Peter\\Desktop\\stuff\\MIUN\\quantitative_research\\video_compression\\compressed_videos\\BVI-HD\\vp9\\2\\CarpetCircleFast_1920x1080_60fps_vp9.webm",
  "codec": "vp9",
  "ok": "Input #0, mov,mp4,m4a,3gp,3g2,mj2, from 'C:\\Users\\Peter\\Desktop\\stuff\\MIUN\\quantitative_research\\video_compression\\videos\\BVI-HD\\BVI-HD_CDVL_videos\\ORIG\\CarpetCircleFast_1920x1080_60fps.mp4':\n  Metadata:\n    major_brand     : isom\n    minor_version   : 512\n    compatible_brands: isomiso2avc1mp41\n    encoder         : Lavf54.28.101\n  Duration: 00:00:05.00, start: 0.000000, bitrate: 324759 kb/s\n  Stream #0:0[0x1](und): Video: h264 (High 4:4:4 Predictive) (avc1 / 0x31637661), yuv420p(progressive), 1920x1080, 324754 kb/s, 60 fps, 60 tbr, 60 tbn (default)\n    Metadata:\n      handler_name    : VideoHandler\n      vendor_id       : [0][0][0][0]\n[out#0/webm @ 0000016925f70e00] Codec AVOption b:a (set bitrate (in bits/s)) has not been used for any stream. The most likely reason is either wrong type (e.g. a video option with no video streams) or that it is a private option of some decoder which was not actually used for any stream.\nStream mapping:\n  Stream #0:0 -> #0:0 (h264 (native) -> vp9 (libvpx-vp9))\nPress [q] to stop, [?] for help\n[libvpx-vp9 @ 00000169269a4c00] v1.15.2-100-g40561f514\nOutput #0, webm, to 'C:\\Users\\Peter\\Desktop\\stuff\\MIUN\\quantitative_research\\video_compression\\compressed_videos\\BVI-HD\\vp9\\2\\CarpetCircleFast_1920x1080_60fps_vp9.webm':\n  Metadata:\n    major_brand     : isom\n    minor_version   : 512\n    compatible_brands: isomiso2avc1mp41\n    encoder         : Lavf62.3.100\n  Stream #0:0(und): Video: vp9, yuv420p(tv, progressive), 1920x1080, q=2-31, 2000 kb/s, 60 fps, 1k tbn (default)\n    Metadata:\n      encoder         : Lavc62.11.100 libvpx-vp9\n      handler_name    : VideoHandler\n      vendor_id       : [0][0][0][0]\n    Side data:\n      cpb: bitrate max/min/avg: 0/0/0 buffer size: 2000000 vbv_delay: N/A\nframe=    1 fps=0.0 q=35.0 size=       1KiB time=00:00:00.01 bitrate= 303.8kbits/s speed=0.0324x elapsed=0:00:00.51    \nframe=   10 fps=9.8 q=41.0 size=       1KiB time=00:00:00.16 bitrate=  30.4kbits/s speed=0.163x elapsed=0:00:01.02    \nframe=   17 fps= 11 q=35.0 size=       1KiB time=00:00:00.28 bitrate=  17.9kbits/s speed=0.184x elapsed=0:00:01.53    \nframe=   24 fps= 12 q=34.0 size=       1KiB time=00:00:00.40 bitrate=  12.7kbits/s speed=0.192x elapsed=0:00:02.08    \nframe=   31 fps= 12 q=32.0 size=       1KiB time=00:00:00.51 bitrate=   9.8kbits/s speed=0.198x elapsed=0:00:02.61    \nframe=   38 fps= 12 q=30.0 size=       1KiB time=00:00:00.63 bitrate=   8.0kbits/s speed=0.202x elapsed=0:00:03.13    \nframe=   45 fps= 12 q=31.0 size=       1KiB time=00:00:00.75 bitrate=   6.8kbits/s speed=0.205x elapsed=0:00:03.65    \nframe=   51 fps= 12 q=30.0 size=       1KiB time=00:00:00.85 bitrate=   6.0kbits/s speed=0.202x elapsed=0:00:04.19    \nframe=   58 fps= 12 q=55.0 size=       1KiB time=00:00:00.96 bitrate=   5.2kbits/s speed=0.204x elapsed=0:00:04.72    \nframe=   65 fps= 12 q=38.0 size=       1KiB time=00:00:01.08 bitrate=   4.7kbits/s speed=0.206x elapsed=0:00:05.25    \nframe=   72 fps= 12 q=57.0 size=       1KiB time=00:00:01.20 bitrate=   4.2kbits/s speed=0.207x elapsed=0:00:05.78    \nframe=   79 fps= 13 q=37.0 size=       1KiB time=00:00:01.31 bitrate=   3.8kbits/s speed=0.209x elapsed=0:00:06.30    \nframe=   86 fps= 13 q=51.0 size=       1KiB time=00:00:01.43 bitrate=   3.5kbits/s speed=0.21x elapsed=0:00:06.82    \nframe=   93 fps= 13 q=43.0 size=       1KiB time=00:00:01.55 bitrate=   3.3kbits/s speed=0.211x elapsed=0:00:07.36    \nframe=   99 fps= 13 q=36.0 size=       1KiB time=00:00:01.65 bitrate=   3.1kbits/s speed=0.209x elapsed=0:00:07.88    \nframe=  107 fps= 13 q=54.0 size=       1KiB time=00:00:01.78 bitrate=   2.8kbits/s speed=0.212x elapsed=0:00:08.41    \nframe=  113 fps= 13 q=46.0 size=       1KiB time=00:00:01.88 bitrate=   2.7kbits/s speed=0.21x elapsed=0:00:08.95    \nframe=  120 fps= 13 q=50.0 size=       1KiB time=00:00:02.00 bitrate=   2.5kbits/s speed=0.211x elapsed=0:00:09.48    \nframe=  128 fps= 13 q=34.0 size=       1KiB time=00:00:02.13 bitrate=   2.4kbits/s speed=0.213x elapsed=0:00:10.01    \nframe=  135 fps= 13 q=33.0 size=     512KiB time=00:00:02.25 bitrate=1864.1kbits/s speed=0.213x elapsed=0:00:10.54    \nframe=  143 fps= 13 q=35.0 size=     512KiB time=00:00:02.38 bitrate=1759.8kbits/s speed=0.216x elapsed=0:00:11.05    \nframe=  150 fps= 13 q=33.0 size=     512KiB time=00:00:02.50 bitrate=1677.7kbits/s speed=0.216x elapsed=0:00:11.58    \nframe=  157 fps= 13 q=31.0 size=     512KiB time=00:00:02.61 bitrate=1602.9kbits/s speed=0.216x elapsed=0:00:12.09    \nframe=  163 fps= 13 q=33.0 size=     512KiB time=00:00:02.71 bitrate=1543.9kbits/s speed=0.215x elapsed=0:00:12.62    \nframe=  171 fps= 13 q=31.0 size=     512KiB time=00:00:02.85 bitrate=1471.7kbits/s speed=0.217x elapsed=0:00:13.15    \nframe=  177 fps= 13 q=31.0 size=     512KiB time=00:00:02.95 bitrate=1421.8kbits/s speed=0.216x elapsed=0:00:13.67    \nframe=  185 fps= 13 q=31.0 size=     512KiB time=00:00:03.08 bitrate=1360.3kbits/s speed=0.217x elapsed=0:00:14.19    \nframe=  191 fps= 13 q=46.0 size=     512KiB time=00:00:03.18 bitrate=1317.6kbits/s speed=0.216x elapsed=0:00:14.73    \nframe=  199 fps= 13 q=44.0 size=     512KiB time=00:00:03.31 bitrate=1264.6kbits/s speed=0.217x elapsed=0:00:15.25    \nframe=  207 fps= 13 q=39.0 size=     512KiB time=00:00:03.45 bitrate=1215.7kbits/s speed=0.219x elapsed=0:00:15.78    \nframe=  212 fps= 13 q=28.0 size=     512KiB time=00:00:03.53 bitrate=1187.1kbits/s speed=0.216x elapsed=0:00:16.32    \nframe=  220 fps= 13 q=41.0 size=     512KiB time=00:00:03.66 bitrate=1143.9kbits/s speed=0.218x elapsed=0:00:16.84    \nframe=  226 fps= 13 q=34.0 size=     512KiB time=00:00:03.76 bitrate=1113.5kbits/s speed=0.217x elapsed=0:00:17.38    \nframe=  234 fps= 13 q=40.0 size=     512KiB time=00:00:03.90 bitrate=1075.5kbits/s speed=0.218x elapsed=0:00:17.91    \nframe=  240 fps= 13 q=39.0 size=     512KiB time=00:00:04.00 bitrate=1048.6kbits/s speed=0.217x elapsed=0:00:18.45    \nframe=  247 fps= 13 q=36.0 size=     512KiB time=00:00:04.11 bitrate=1018.9kbits/s speed=0.217x elapsed=0:00:19.00    \nframe=  255 fps= 13 q=32.0 size=     512KiB time=00:00:04.25 bitrate= 986.9kbits/s speed=0.218x elapsed=0:00:19.52    \nframe=  263 fps= 13 q=31.0 size=    1280KiB time=00:00:04.38 bitrate=2392.2kbits/s speed=0.219x elapsed=0:00:20.04    \nframe=  270 fps= 13 q=34.0 size=    1280KiB time=00:00:04.50 bitrate=2330.2kbits/s speed=0.219x elapsed=0:00:20.55    \nframe=  276 fps= 13 q=32.0 size=    1280KiB time=00:00:04.60 bitrate=2279.5kbits/s speed=0.218x elapsed=0:00:21.07    \nframe=  276 fps= 13 q=32.0 size=    1280KiB time=00:00:04.60 bitrate=2279.5kbits/s speed=0.213x elapsed=0:00:21.58    \nframe=  276 fps= 12 q=32.0 size=    1280KiB time=00:00:04.60 bitrate=2279.5kbits/s speed=0.208x elapsed=0:00:22.10    \nframe=  276 fps= 12 q=32.0 size=    1280KiB time=00:00:04.60 bitrate=2279.5kbits/s speed=0.203x elapsed=0:00:22.61    \n[out#0/webm @ 0000016925f70e00] video:1570KiB audio:0KiB subtitle:0KiB other streams:0KiB global headers:0KiB muxing overhead: 0.177406%\nframe=  300 fps= 13 q=30.0 Lsize=    1573KiB time=00:00:05.00 bitrate=2576.7kbits/s speed=0.22x elapsed=0:00:22.75    \n",
  "seconds": 22.986892461776733,
  "probe_out": {}
}